<svg xmlns="http://www.w3.org/2000/svg" width="96" height="96" viewBox="0 0 96 96"><path fill="#FFF" d="M82.076 33.969h3.481v2.9h-3.481z"/><path fill="#80A0B5" d="M40.993 11.585l6.628.009.257 3.891 5.845 1.133 1.694-3.501 6.137 2.489L60.34 19.3l4.986 3.251 2.877-2.606 4.758 4.599-2.537 2.935 3.438 4.91 3.651-1.343 1.693 3.46.873 2.235.732 2.286s-7.217 13.547-13.247 12.058c-16.588-4.098-32.03-3.492-48.5-1.622L7.681 38.971l.73-2.27.871-2.221 1.714-3.486 3.748 1.397 3.368-4.831-2.539-3.078 4.784-4.598 2.924 2.664 4.989-3.25-1.238-3.743 6.153-2.473 1.704 3.536 5.846-1.133.258-3.9z"/><path fill="#A39900" d="M89.821 36.141c1.119-.623 1.853-.827 2.431-.827a2.71 2.71 0 0 1 .925.177c.24.081.41.14.616.14.305.001.781-.134 1.663-.745a.346.346 0 1 1 .395.571c-.928.642-1.534.865-2.058.867-.345 0-.612-.101-.84-.177-.231-.077-.425-.14-.701-.14-.406-.001-1.027.145-2.094.74a.347.347 0 0 1-.337-.606z"/><path fill="#576C10" d="M79.127 33.092c-6.763.25-9.553 9.359-8.938 12.493 1.969 10.04-5.807 26.661-26.174 26.004-12.595-.406-19.521-13.556-22.716-22.167l-9.804-9.567C4.7 63.14 24.331 83.201 44.299 83.201c17.318 0 35.178-11.842 35.582-36.981.055-3.42 2.263-4.234 3.807-4.652 5.262-1.427 7.459-1.957 7.459-5.125 0-3.929-5.779-3.582-12.02-3.351m4.945 3.06c-.491.096-1.241-.085-1.321-.497-.044-.217.536-.9 1.028-.996.491-.096 1.253.261 1.281.524.023.219-.495.873-.988.969"/><path fill="#FFF" d="M70.423 49.213c0 14.446-11.711 26.155-26.155 26.155-14.445 0-26.156-11.709-26.156-26.155 0-14.446 11.711-26.155 26.156-26.155 14.444 0 26.155 11.709 26.155 26.155"/><path fill="#E6E7E8" d="M67.831 60.274l.01.279a26.044 26.044 0 0 0 1.489-3.838c-1.026.61-1.51 1.957-1.499 3.559m2.591-11.244c-.001-.195-.006-.39-.011-.583-.571-.13-.922-.956-.923-2.538-.007-.99.13-1.688.375-2.101a26.853 26.853 0 0 0-.377-1.554c-1.201.528-1.765 1.96-1.754 3.691.022 1.76.622 3.252 1.93 3.707l-1.299.611.061.267c-.256-.455-.606-.817-1.059-1.043l-.05-7.113c.773-.406 1.261-1.224 1.467-2.304a26.14 26.14 0 0 0-2.862-5.535l.003.37c-1.835.101-2.691 1.779-2.677 3.906.022 1.76.622 3.252 1.929 3.707l-1.298.611.061.267c-.257-.456-.606-.817-1.059-1.043l-.049-6.967c1.005-.335 1.615-1.261 1.839-2.543a25.82 25.82 0 0 0-1.687-1.903c.016.211.027.437.029.683.013 1.71-.351 2.568-1.033 2.573h-.011c-.671.005-1.092-.825-1.093-2.558-.007-1.111.165-1.854.47-2.239-.38-.327-.768-.643-1.167-.95-.723.7-1.068 1.869-1.059 3.223.021 1.672.565 3.101 1.739 3.629l-1.466.691.06.267a2.63 2.63 0 0 0-.721-.841h.021l-.053-7.511h-.049c.124-.092.237-.199.342-.315-.42-.287-.847-.563-1.284-.825a.717.717 0 0 1-.576.295h-.011c-.452.002-.791-.376-.965-1.154a26.134 26.134 0 0 0-1.859-.862c.129 1.625.796 2.94 2.116 3.266l-1.153.544.061.267c-.321-.57-.786-.992-1.419-1.184l-.021-3.059a25.469 25.469 0 0 0-1.703-.606l.026 3.687c-1.343.45-1.975 1.945-1.962 3.772.02 1.673.565 3.101 1.739 3.631l-1.467.69.061.269a2.655 2.655 0 0 0-.721-.841l.02-.001-.053-7.511-.049.001c.862-.645 1.284-1.888 1.273-3.453a7.331 7.331 0 0 0-.03-.58 26.02 26.02 0 0 0-1.792-.411c.04.3.062.641.065 1.026.013 1.71-.352 2.569-1.033 2.574h-.013c-.67.004-1.092-.825-1.092-2.559-.004-.53.034-.976.106-1.341a25.742 25.742 0 0 0-1.702-.137c-.11.464-.165.973-.161 1.513.022 1.854.686 3.413 2.141 3.773l-1.152.542.06.269c-.32-.57-.786-.992-1.418-1.184l-.035-4.934a33.98 33.98 0 0 0-.905-.011c-.266.002-.531.01-.795.019l.035 4.948c-1.343.45-1.974 1.945-1.962 3.773.02 1.672.565 3.101 1.739 3.629l-1.467.691.061.267a2.642 2.642 0 0 0-.721-.841h.02l-.052-7.511h-.048c.861-.645 1.283-1.888 1.272-3.453a6.502 6.502 0 0 0-.161-1.424c-.571.049-1.137.117-1.697.202.064.35.099.768.101 1.258.013 1.71-.351 2.567-1.033 2.572h-.011c-.671.005-1.092-.825-1.093-2.558a7.81 7.81 0 0 1 .04-.891c-.603.14-1.198.302-1.785.484a8.024 8.024 0 0 0-.011.442c.024 1.854.686 3.412 2.143 3.773l-1.153.542.061.267c-.321-.568-.787-.992-1.419-1.184l-.026-3.712c-.573.189-1.139.395-1.694.621l.021 3.113c-1.343.45-1.974 1.945-1.962 3.773.021 1.672.565 3.101 1.739 3.629l-1.466.691.06.267a2.63 2.63 0 0 0-.721-.841h.021l-.053-7.511h-.049c.701-.525 1.111-1.444 1.233-2.611-.658.306-1.302.64-1.93.998-.174.507-.45.765-.821.768h-.011a.734.734 0 0 1-.319-.072c-.437.28-.866.573-1.286.878.257.206.555.359.897.444l-1.153.543.061.267a2.719 2.719 0 0 0-.549-.692c-.396.311-.783.631-1.161.965.34.366.516 1.139.525 2.288.011 1.71-.352 2.568-1.034 2.573h-.011c-.671.005-1.092-.823-1.093-2.558-.001-.286.01-.546.03-.783a26.481 26.481 0 0 0-1.684 1.935c.206 1.169.736 2.108 1.638 2.514l-1.467.69.06.267a2.626 2.626 0 0 0-.721-.84l.021-.001-.014-2a25.987 25.987 0 0 0-1.895 2.959.683.683 0 0 1 .344-.091c.705-.005 1.069.871 1.081 2.535.013 1.709-.352 2.568-1.033 2.572h-.013c-.67.005-1.092-.825-1.092-2.558a6.83 6.83 0 0 1 .092-1.257 25.844 25.844 0 0 0-1.407 3.545c.316.693.803 1.216 1.487 1.454l-1.298.611.061.267a2.685 2.685 0 0 0-.681-.8 25.73 25.73 0 0 0-.526 2.764c.012.186.02.385.021.596.006.825-.076 1.449-.239 1.878a26.404 26.404 0 0 0 .445 6.007l-.03-4.27c1.069-.562 1.593-1.907 1.58-3.649a6.5 6.5 0 0 0-.187-1.548l1.282-.621h.022l.039 5.525c-1.589.289-2.333 1.882-2.319 3.863.022 1.762.622 3.253 1.929 3.707l-1.298.612.061.267-.042-.066c.144.406.297.807.461 1.203l-.035-.16 1.282-.621h.024l.024 3.475a26.198 26.198 0 0 0 3.225 4.585l-.067-.305 1.283-.621h.022l.016 2.258a26.204 26.204 0 0 0 1.71 1.552l-.037-5.188c1.071-.562 1.593-1.907 1.582-3.649a6.398 6.398 0 0 0-.189-1.548l1.283-.621h.022l.039 5.525c-1.589.289-2.333 1.882-2.319 3.864.01.856.159 1.645.457 2.286a26.161 26.161 0 0 0 3.62 2.324l-.008-1.047c1.071-.562 1.593-1.907 1.582-3.649a6.454 6.454 0 0 0-.189-1.548l1.283-.621h.022l.039 5.525c-.952.174-1.599.817-1.963 1.729.499.245 1.007.475 1.523.687.167-.755.495-1.134.935-1.137.602-.005.955.637 1.052 1.862.585.187 1.178.354 1.78.501a6.344 6.344 0 0 0-.184-1.411l1.282-.621h.024l.016 2.281c.56.11 1.127.2 1.7.274l-.027-3.934c1.069-.562 1.593-1.907 1.581-3.648a6.5 6.5 0 0 0-.187-1.548l1.282-.621.024-.001.037 5.526c-1.588.289-2.333 1.882-2.319 3.863.003.14.009.277.017.412.581.065 1.167.112 1.758.139a8.256 8.256 0 0 1-.019-.586c-.011-1.699.399-2.545 1.057-2.55.706-.005 1.069.871 1.082 2.535.001.217-.004.421-.015.611a26.12 26.12 0 0 0 1.757-.12c.01-.171.015-.346.014-.526a6.5 6.5 0 0 0-.187-1.548l1.282-.621h.022l.019 2.553a26.518 26.518 0 0 0 1.697-.305l-.025-3.626c1.069-.562 1.593-1.907 1.58-3.649a6.398 6.398 0 0 0-.189-1.548l1.283-.621h.024l.037 5.525c-1.579.287-2.324 1.864-2.319 3.831a26.093 26.093 0 0 0 1.767-.475c.062-1.381.452-2.074 1.047-2.078.514-.004.846.464.993 1.359a26.145 26.145 0 0 0 5.195-2.802c.703-.685 1.047-1.838 1.037-3.253a6.39 6.39 0 0 0-.189-1.547l1.283-.622h.022l.026 3.729a26.746 26.746 0 0 0 1.688-1.594l-.018-3.512c1.071-.563 1.593-1.908 1.582-3.649a6.498 6.498 0 0 0-.189-1.548l1.283-.621h.022l.039 5.525c-1.456.264-2.2 1.624-2.305 3.375a26.184 26.184 0 0 0 3.988-5.644l-.032-4.634c1.07-.562 1.593-1.908 1.581-3.649a6.5 6.5 0 0 0-.187-1.548l1.282-.621h.024l.015 2.26c.201-1.342.303-2.717.293-4.116m-48.594 6.943h-.013c-.67.004-1.092-.825-1.092-2.559-.012-1.699.399-2.545 1.057-2.55.705-.005 1.069.871 1.081 2.535.013 1.71-.351 2.569-1.033 2.574m1.108-13.29c1.071-.562 1.594-1.907 1.582-3.649a6.39 6.39 0 0 0-.189-1.547l1.283-.622h.022l.039 5.526c-1.589.287-2.333 1.88-2.319 3.863.021 1.76.622 3.252 1.929 3.707l-1.298.611.061.267c-.257-.455-.607-.817-1.061-1.043l-.049-7.113zm1.15 22.219l.06.267c-.256-.456-.606-.818-1.059-1.043l-.05-7.113c1.071-.562 1.594-1.907 1.582-3.649a6.398 6.398 0 0 0-.189-1.548l1.283-.621h.022l.039 5.525c-1.588.289-2.333 1.882-2.319 3.863.022 1.762.622 3.253 1.929 3.707l-1.298.612zm2.23-1.795h-.013c-.67.004-1.092-.825-1.092-2.559-.013-1.698.399-2.545 1.057-2.55.705-.005 1.069.872 1.081 2.535.011 1.711-.352 2.569-1.033 2.574m-.1-14.331h-.012c-.67.005-1.092-.825-1.092-2.558-.012-1.699.397-2.546 1.057-2.55.705-.005 1.07.871 1.081 2.535.012 1.711-.353 2.568-1.034 2.573m1.109-13.143c1.309-.435 1.952-1.872 1.938-3.797a6.493 6.493 0 0 0-.187-1.548l1.282-.621h.024l.037 5.486c-1.835.101-2.691 1.779-2.676 3.904.021 1.76.622 3.252 1.929 3.707l-1.298.611.06.269c-.256-.456-.606-.818-1.06-1.043l-.049-6.968zm1.149 22.073l.06.267c-.256-.455-.606-.817-1.059-1.043l-.05-7.113c1.071-.562 1.594-1.907 1.582-3.649a6.44 6.44 0 0 0-.189-1.547L30.1 44l.022-.001.039 5.526c-1.589.287-2.333 1.88-2.319 3.863.021 1.76.622 3.252 1.929 3.707l-1.297.611zm2.328 12.535h-.011c-.67.005-1.092-.825-1.092-2.559-.013-1.698.397-2.545 1.057-2.55.705-.004 1.07.872 1.081 2.536.011 1.711-.352 2.568-1.035 2.573m-.099-14.331h-.011c-.67.005-1.092-.825-1.092-2.558-.013-1.699.397-2.546 1.057-2.551.705-.004 1.068.872 1.081 2.536.01 1.711-.353 2.568-1.035 2.573m-.1-14.33h-.011c-.67.005-1.092-.823-1.092-2.558-.013-1.699.397-2.545 1.057-2.55.705-.005 1.07.871 1.081 2.535.01 1.711-.353 2.569-1.035 2.573m7.536-9.807a6.398 6.398 0 0 0-.189-1.548l1.283-.621h.022l.039 5.486c-1.835.101-2.691 1.779-2.677 3.906.022 1.76.622 3.251 1.929 3.706l-1.298.612.061.267c-.257-.456-.606-.817-1.059-1.043l-.049-6.967c1.309-.436 1.952-1.872 1.938-3.798m.508 25.259l-1.299.612.061.267c-.257-.456-.606-.818-1.059-1.043l-.05-7.113c1.069-.563 1.593-1.908 1.58-3.649a6.5 6.5 0 0 0-.187-1.548l1.282-.621h.024l.039 5.525c-1.589.289-2.334 1.882-2.32 3.863.022 1.761.623 3.253 1.929 3.707m-3.345-27.758c.705-.006 1.07.87 1.081 2.534.012 1.71-.352 2.569-1.033 2.574h-.012c-.67.004-1.092-.825-1.092-2.559-.013-1.698.397-2.545 1.056-2.549m-3.49 13.348c1.071-.563 1.593-1.908 1.582-3.649a6.498 6.498 0 0 0-.189-1.548l1.282-.621h.024l.039 5.525c-1.589.289-2.334 1.882-2.32 3.863.022 1.76.623 3.252 1.93 3.707l-1.298.612.06.266c-.256-.455-.606-.817-1.059-1.042l-.051-7.113zm1.149 22.218l.06.267c-.256-.456-.606-.817-1.06-1.043l-.05-7.113c1.071-.562 1.593-1.907 1.582-3.648a6.456 6.456 0 0 0-.189-1.549l1.282-.62.024-.001.039 5.526c-1.589.287-2.334 1.88-2.319 3.863.021 1.76.622 3.252 1.929 3.707l-1.298.611zm2.229-1.796h-.011c-.67.005-1.092-.825-1.093-2.558-.011-1.699.399-2.545 1.057-2.55.706-.005 1.069.871 1.082 2.535.011 1.711-.352 2.568-1.035 2.573m-.1-14.33l-.011.001c-.671.004-1.092-.825-1.093-2.559-.011-1.699.399-2.545 1.057-2.55.706-.005 1.07.871 1.082 2.535.011 1.711-.352 2.569-1.035 2.573m2.359 23.26l.06.269c-.256-.456-.606-.818-1.059-1.044l-.05-7.113c1.07-.562 1.593-1.907 1.581-3.648a6.443 6.443 0 0 0-.187-1.548l1.282-.621h.024l.039 5.525c-1.589.289-2.334 1.88-2.32 3.863.022 1.76.623 3.252 1.93 3.707l-1.3.61zm2.229-1.796h-.011c-.671.005-1.092-.825-1.093-2.558-.011-1.699.399-2.545 1.057-2.55.706-.005 1.07.871 1.082 2.535.011 1.711-.353 2.568-1.035 2.573m-.1-14.33h-.011c-.671.005-1.092-.823-1.093-2.558-.011-1.699.399-2.545 1.057-2.55.706-.005 1.069.871 1.081 2.535.012 1.711-.352 2.569-1.034 2.573m-.1-14.329h-.011c-.671.005-1.092-.825-1.093-2.559-.011-1.698.399-2.545 1.057-2.55.705-.004 1.07.872 1.081 2.536.012 1.709-.352 2.568-1.034 2.573m7.537-9.808a6.44 6.44 0 0 0-.189-1.547l1.283-.621h.022l.039 5.486c-1.835.1-2.692 1.779-2.677 3.904.022 1.76.622 3.252 1.929 3.707l-1.298.611.061.267c-.257-.455-.607-.817-1.061-1.042l-.049-6.968c1.311-.434 1.953-1.871 1.94-3.797m.507 25.26l-1.298.611.061.267c-.257-.456-.606-.817-1.061-1.043l-.049-7.113c1.069-.562 1.593-1.907 1.58-3.649a6.5 6.5 0 0 0-.187-1.548l1.282-.621h.022l.039 5.525c-1.588.289-2.333 1.882-2.319 3.864.022 1.761.623 3.252 1.93 3.707m-3.345-27.759c.705-.005 1.07.871 1.081 2.535.011 1.71-.352 2.568-1.033 2.573h-.012c-.67.005-1.092-.825-1.092-2.558-.013-1.699.398-2.545 1.056-2.55m-3.489 13.347c1.07-.562 1.593-1.907 1.581-3.649a6.5 6.5 0 0 0-.187-1.548l1.282-.621h.024l.037 5.526c-1.588.287-2.333 1.88-2.319 3.863.022 1.76.622 3.252 1.929 3.707l-1.298.611.061.267c-.257-.456-.606-.817-1.061-1.043l-.049-7.113zm1.148 22.218l.061.269c-.257-.456-.606-.818-1.06-1.043l-.05-7.113c1.069-.562 1.593-1.908 1.58-3.649a6.5 6.5 0 0 0-.187-1.548l1.282-.621h.024l.039 5.525c-1.589.289-2.334 1.882-2.32 3.863.022 1.762.622 3.252 1.93 3.707l-1.299.61zm2.23-1.795h-.011c-.671.005-1.092-.823-1.093-2.558-.011-1.699.399-2.545 1.057-2.55.705-.005 1.069.871 1.081 2.535.012 1.711-.352 2.569-1.034 2.573m-.1-14.329h-.011c-.671.004-1.093-.825-1.093-2.558-.011-1.699.399-2.546 1.057-2.551.705-.004 1.07.872 1.081 2.536.012 1.711-.352 2.568-1.034 2.573m2.358 23.26l.061.267c-.257-.456-.607-.817-1.059-1.043l-.05-7.113c1.07-.562 1.593-1.908 1.581-3.649a6.5 6.5 0 0 0-.187-1.548l1.282-.621h.024l.037 5.525c-1.588.289-2.333 1.882-2.319 3.864.022 1.76.622 3.251 1.93 3.706l-1.3.612zm2.23-1.796h-.011c-.671.004-1.092-.825-1.093-2.559-.011-1.698.399-2.545 1.057-2.55.705-.005 1.07.872 1.081 2.535.012 1.711-.352 2.569-1.034 2.574m-.1-14.33h-.011c-.671.004-1.093-.825-1.093-2.559-.013-1.698.399-2.545 1.057-2.55.705-.004 1.069.872 1.081 2.536.012 1.711-.352 2.568-1.034 2.573m-.1-14.331h-.013c-.67.005-1.092-.825-1.092-2.558-.013-1.699.399-2.545 1.057-2.55.705-.005 1.07.871 1.081 2.535.013 1.711-.352 2.568-1.033 2.573m10.084.98c1.071-.562 1.593-1.908 1.582-3.649a6.398 6.398 0 0 0-.189-1.548l1.282-.621h.024l.039 5.525c-1.589.289-2.334 1.882-2.319 3.864.021 1.759.622 3.251 1.929 3.706l-1.298.612.06.266c-.256-.455-.606-.817-1.059-1.042l-.051-7.113zM55.889 31.65a6.399 6.399 0 0 0-.187-1.548l1.282-.621h.024l.037 5.486c-1.835.101-2.691 1.779-2.676 3.904.021 1.76.622 3.252 1.929 3.707L55 43.19l.061.267c-.257-.456-.607-.817-1.061-1.043l-.049-6.968c1.31-.434 1.952-1.871 1.938-3.796m.509 25.259l-1.298.611.06.267c-.256-.455-.606-.817-1.059-1.043l-.05-7.113c1.071-.562 1.593-1.907 1.582-3.649a6.39 6.39 0 0 0-.189-1.547l1.283-.621.022-.001.039 5.526c-1.589.289-2.333 1.88-2.319 3.863.021 1.76.622 3.252 1.929 3.707M53.052 29.15c.706-.005 1.07.871 1.081 2.535.012 1.71-.351 2.569-1.033 2.574h-.011c-.671.004-1.092-.825-1.093-2.559-.013-1.7.397-2.545 1.056-2.55m-3.489 13.347c1.069-.562 1.593-1.907 1.58-3.649a6.39 6.39 0 0 0-.189-1.547l1.283-.621h.022l.039 5.525c-1.589.289-2.333 1.88-2.319 3.863.021 1.76.622 3.252 1.929 3.707l-1.298.611.06.267c-.256-.455-.606-.817-1.059-1.043l-.048-7.113zm1.149 22.219l.061.267c-.257-.456-.607-.817-1.061-1.043l-.049-7.113c1.07-.562 1.593-1.907 1.581-3.649a6.506 6.506 0 0 0-.187-1.548l1.282-.621h.022l.039 5.526c-1.589.287-2.333 1.88-2.319 3.863.022 1.76.622 3.252 1.929 3.707l-1.298.611zm2.23-1.795h-.011c-.671.005-1.093-.825-1.093-2.559-.013-1.698.399-2.545 1.057-2.549.705-.005 1.07.871 1.081 2.534.011 1.71-.352 2.569-1.034 2.574m-.1-14.331h-.012c-.67.005-1.092-.825-1.092-2.558-.012-1.699.399-2.545 1.057-2.55.705-.005 1.069.871 1.081 2.535.012 1.711-.353 2.568-1.034 2.573m2.417 23.527c-.256-.455-.606-.817-1.059-1.043l-.049-7.113c1.069-.562 1.593-1.907 1.581-3.649a6.39 6.39 0 0 0-.189-1.547l1.283-.621.022-.001.039 5.526c-1.589.287-2.333 1.88-2.319 3.863.022 1.76.622 3.252 1.929 3.707l-1.298.611.06.267zm2.171-2.062h-.012c-.67.005-1.092-.825-1.092-2.558-.012-1.699.397-2.546 1.057-2.55.705-.005 1.07.871 1.081 2.535.01 1.711-.353 2.568-1.034 2.573m-.1-14.331h-.013c-.67.005-1.092-.825-1.092-2.558-.013-1.699.397-2.545 1.057-2.55.705-.005 1.069.871 1.081 2.535.012 1.711-.352 2.569-1.033 2.573m-.1-14.329h-.012c-.67.004-1.092-.825-1.092-2.559-.012-1.699.397-2.545 1.056-2.55.706-.005 1.07.871 1.082 2.535.01 1.711-.353 2.569-1.034 2.574m2.357 23.26l.06.266c-.256-.456-.606-.817-1.059-1.043l-.05-7.112c1.071-.563 1.593-1.908 1.582-3.649a6.448 6.448 0 0 0-.189-1.548l1.283-.621h.022l.039 5.525c-1.589.289-2.333 1.88-2.319 3.863.021 1.76.622 3.252 1.929 3.707l-1.298.612zm2.229-1.797h-.011c-.67.005-1.092-.825-1.093-2.558-.011-1.699.399-2.545 1.057-2.55.706-.005 1.069.871 1.082 2.535.011 1.711-.353 2.569-1.035 2.573m-.1-14.329h-.011c-.671.004-1.092-.825-1.093-2.559-.011-1.699.399-2.545 1.057-2.55.706-.005 1.07.871 1.081 2.535.012 1.711-.352 2.569-1.034 2.574m2.259 8.929l.06.267c-.256-.456-.606-.818-1.06-1.043l-.05-7.113c1.069-.562 1.593-1.907 1.58-3.649a6.399 6.399 0 0 0-.187-1.548l1.282-.621h.024l.039 5.525c-1.589.289-2.334 1.882-2.32 3.863.022 1.762.623 3.252 1.93 3.707l-1.298.612zm2.229-1.795h-.011c-.671.005-1.092-.825-1.093-2.559-.011-1.698.399-2.545 1.057-2.55.706-.005 1.069.871 1.082 2.535.011 1.711-.353 2.569-1.035 2.574m-.1-14.331h-.011c-.671.005-1.092-.825-1.093-2.558-.011-1.699.399-2.546 1.057-2.55.706-.005 1.07.871 1.082 2.535.011 1.711-.353 2.568-1.035 2.573"/><path fill="#A39900" d="M14.531 57.034c-3.501-3.222-6.569-1.381-9.788-3.302C-.092 50.843.63 45.391 1.111 40.501c3.679 6.193 7.463 5.014 10.461 7.814 1.64 1.53 1.058 4.209 2.959 8.719m1.462.538c1.193-4.788 3.942-5.419 5.915-8.146 2.969-4.108 1.499-8.35-.136-12.459-2.766 4.43-3.039 3.096-6.429 8.421-1.085 1.701-1.315 5.886.65 12.184"/><path fill="#A39900" d="M13.114 47.823c.62-5.424 5.718-5.933 2.612-9.913C12.26 33.471 4.913 32.268 0 32.399c5.554 4.467 2.336 9.738 6.151 11.253 3.192 1.269 4.155 1.567 6.963 4.171m4.919 17.208c-2.706-.995-7.23-.875-9.509-2.109-3.708-2.008-4.379-4.57-4.695-8.236 2.426 2.149 6.046 1.162 8.797 2.529 3.358 1.668 2.414 4.552 5.407 7.816m4.561 5.389c-2.97-.376-4.843 1.352-7.741.266-2.987-1.119-5.096-3.148-6.847-6.372 3.581 1.672 5.035 1.202 8.276 1.792 2.188.397 4.257 1.989 6.312 4.314m5.784 5.036c-2.745-.159-3.547.115-5.968.597-2.699.536-6.058-1.618-7.997-4.218 3.589 1.161 5.707-.446 7.957-.239 3.023.279 4.376 2.706 6.008 3.86m5.769 2.785c-2.706.557-2.315 1.341-4.745 1.772-3.064.545-5.32-.008-8.305-2.568 3.501.319 3.978-.756 6.684-.836 2.109-.061 5.075.993 6.366 1.632m5.531 1.512c-2.045 1.103-1.637 1.933-4.312 3.067-2.105.892-6.339-.366-8.461-1.436 3.343.239 4.377-.597 5.632-1.269 2.345-1.256 5.007-.877 7.141-.362M20.38 65.986c-2.264-2.644-3.739-5.053-3.222-7.52.631-3.01 4.423-5.01 6.326-8.753.224 3.081.886 5.457-.394 9.634-.611 1.993-2.71 2.827-2.71 6.639m5.173 5.65c-1.203-.725-3.977-3.296-3.939-5.291.072-3.832 3.242-4.26 3.315-9.838 2.033 4.32 2.286 5.447 2.296 7.609.009 2.454-1.922 3.689-1.672 7.52m6.127 4.377c-1.438-.813-4.418-2.319-4.775-4.814-.382-2.674 1.753-4.365 1.715-8.11 2.461 3.326 3.001 4.669 3.06 7.194.04 1.714-.987 2.749 0 5.73m7.043 2.427c-2.375-.49-5.671-1.828-5.968-3.501-.466-2.626.955-3.939-.05-6.917 1.98 2.065 2.976 2.241 3.996 4.843.791 2.022.111 3.785 2.022 5.575m5.451 1.613c-.912.96-1.411 2.2-2.353 3.026-1.386 1.209-3.684 1.117-5.765.612 1.714-.881 2.533-1.64 3.207-2.401.859-.968 2.564-1.515 4.911-1.237m-.624-1.008c-1.78.187-3.395-.486-3.992-1.242-.9-1.141-.557-2.984-1.552-5.212 1.884 1.024 3.112 1.943 3.762 2.876.636.915.581 2.185 1.782 3.578m4.13 1.105c-.716.915-.257 2.476-1.104 3.217-1.244 1.088-3.029 1.269-4.899.816.843-.432 1.742-.742 2.594-2.256.864-1.538 1.228-2.067 3.409-1.777m.144-1.153c-1.6.169-3.026.385-3.842-1.248-.556-1.112-.336-1.682-1.777-3.458 2.256.481 3.355 1.179 3.938 2.018.573.821.337 1.487 1.681 2.688"/><path fill="#A7A8AC" d="M61.227 44.517c-.204-2.611-.286-3.837-7.305-3.837-1.347 0-3.428 0-4.53.286-.164 2.163-.164 6.367-.164 7.306v3.142c1.918.162 2.571.204 4.53.204 5.632 0 5.632-.49 5.632-2.531l.775-.081c.041.653.082 1.062.082 2.409 0 .325 0 2.08-.082 4.162h-.815c0-.531 0-1.999-.327-2.204-.612-.407-3.142-.857-6.203-.857-1.183 0-2.368 0-3.551.124a304.457 304.457 0 0 0-.081 6.733c0 4.325 0 4.653 4.284 5.182v.776c-.856-.041-1.795-.122-4.325-.122h-1.959c-.367 0-2.123.041-3.673.164l.041-.653c1.877-.326 2.203-.857 2.368-1.754.449-2.368.449-6.244.449-10.897 0-1.959 0-9.142-.531-10.57-.367-1.021-1.347-1.102-2.775-1.266v-.653h2.571c.98 0 2.734.164 3.632.164 1.592 0 3.265.041 3.837.041 3.387 0 7.059-.122 9.059-.286-.162 1.673-.162 3.183-.122 5.02h-.817z"/><path fill="#A7A8AC" d="M42.966 40.151c-.326-4.449-4.734-5.184-6.815-5.184-5.224 0-5.427 4.204-5.427 4.98 0 3.468 2.856 4.529 6.121 5.795 3.183 1.224 7.674 2.939 7.674 7.876 0 3.673-2.899 6.774-8.857 6.774-.49 0-2.816 0-5.836-.816-.367-.081-.531-.122-.652-.122-.532 0-.45.449-.41.693l-.816-.04c.041-2.244-.571-4.898-1.102-6.652.286-.082.369-.122.653-.164.776 2.448 1.061 3.387 2.612 4.244 1.142.612 3.672 1.755 6.652 1.755.816 0 5.101 0 5.101-4.532 0-3.958-2.897-5.06-6.448-6.406-4.082-1.511-7.183-3.183-7.183-7.183 0-3.756 2.775-7.02 8.53-7.02.735 0 2.082 0 4.122.449.816.164.898.164 1.021.164.53 0 .938-.245 1.347-.49.122 0 .285.041.409.081-.124.857-.327 2.123-.286 3.143.04.693.204 2.204.204 2.611l-.614.044z"/><path fill="#808183" d="M52.154 37.454c-.326-4.448-4.734-5.182-6.815-5.182-5.224 0-5.429 4.203-5.429 4.979 0 3.468 2.857 4.529 6.122 5.795 3.183 1.224 7.673 2.939 7.673 7.876 0 3.674-2.897 6.775-8.856 6.775-.49 0-2.816 0-5.837-.816-.367-.082-.53-.122-.653-.122-.53 0-.447.447-.406.693l-.817-.041c.04-2.244-.572-4.898-1.102-6.652.285-.082.367-.122.653-.164.775 2.449 1.061 3.387 2.611 4.244 1.143.613 3.673 1.754 6.653 1.754.815 0 5.101 0 5.101-4.529 0-3.958-2.897-5.06-6.448-6.407-4.082-1.511-7.183-3.183-7.183-7.183 0-3.756 2.775-7.02 8.53-7.02.735 0 2.082 0 4.122.449.816.164.898.164 1.02.164.531 0 .94-.245 1.347-.49.124 0 .286.041.409.081-.122.857-.326 2.123-.285 3.143.04.693.204 2.204.204 2.611l-.614.042z"/></svg>